<?xml version="1.0" encoding="UTF-8"?>
<svg version="1.1" viewBox="0 0 2048 2048" width="1280" height="1280" xmlns="http://www.w3.org/2000/svg">
<path transform="translate(1012,64)" d="m0 0h24l23 2 28 4 26 6 27 8 26 10 28 13 21 12 21 14 16 12 10 8 10 9 8 7 22 22 9 11 11 13 13 19 10 15 14 25 12 26 7 18 1 1 33 1 1-11 26-180 1-5h8l55 8v9l-8 55-18 125v6l15 8 14 11 7 7 10 14 8 17 4 18 1 12v129l-1 20-5 25-6 17-8 16-7 12-8 11-11 12-9 9-10 8-16 10-16 8-17 6-21 5-23 2h-32l-2 6-14 21-11 15-9 11-11 13-5 6h-2l-2 4-8 8-8 7-13 12-14 11-16 12-14 9-1 94 33-15 39-18 35-16 40-18 35-16 68-31 40-18 35-16 143-65 26-12 13-4h10l9 3 6 4 5 5 5 8 2 10v294l10 2 19 8 16 9 13 10 10 9 11 11 13 17 8 13 8 15 9 23 6 22 4 24 1 16v16l-2 25-5 25-6 19-8 19-7 14-12 18-8 10-9 10-8 8-13 10-13 8-16 8-16 6-5 1v227l-1 10-5 10-7 7-16 8-37 17-33 15-40 18-37 17-36 16-30 14-33 15-40 18-37 17-36 16-30 14-66 30-77 35-36 16-32 15-29 13-35 16-27 12-9 3-8 1-10-2-21-9-28-13-73-33-37-17-36-16-30-14-73-33-37-17-36-16-30-14-73-33-37-17-36-16-30-14-73-33-59-27-10-9-5-10-1-4v-233l-12-3-18-8-11-6-13-9-13-11-11-11-11-14-10-15-10-19-8-21-6-21-4-24-1-9v-34l3-23 5-22 7-21 12-25 11-17 10-13 13-13 12-11 15-10 17-9 22-8 1-297 4-10 6-8 9-6 7-2h11l15 5 32 15 29 13 66 30 37 17 29 13 33 15 35 16 31 14 66 30 35 16 36 16 39 18 16 7 8 4-1-93-11-8-14-10-16-13-14-12-16-15-14-15-9-11-13-16-13-19-10-16-34-1-21-2-21-5-19-7-17-9-13-9-11-9-16-16-11-15-10-17-8-20-5-18-3-22v-148l3-16 5-15 8-14 9-11 9-9 13-9 12-6-3-24-23-161-1-9 7-2 49-7h8l22 153 6 42h32l2-1 10-25 12-25 12-21 10-15 10-14 16-20 12-13 13-14 8-7 11-10 17-13 12-9 20-13 27-15 24-11 24-9 31-9 28-6 29-4z" fill="#010000"/>
<path transform="translate(1694,786)" d="m0 0 2 1-1 241-20 7-16 8-11 7-14 11-12 11-9 11-9 12-8 13-8 15-8 21-6 21-3 15-2 17v39l4 27 6 22 8 21 8 16 9 15 12 16 12 13 11 9 12 9 16 9 14 6 13 4 2 3-1 205-16 8-37 17-36 16-34 16-36 16-41 19-36 16-30 14-33 15-40 18-37 17-36 16-30 14-33 15-40 18-37 17-29 13-36 16-19 9-3-1v-823l5-3 35-16 68-31 29-13 35-16 99-45 145-66 110-50 36-16 28-13 36-16z" fill="#F7D4AC"/>
<path transform="translate(353,786)" d="m0 0 20 9 33 15 35 16 29 13 40 18 72 33 62 28 35 16 36 16 32 15 27 12 68 31 24 11 40 18 68 31 16 7 2 3v823l-2 1-14-7-29-13-77-35-68-31-29-13-176-80-143-65-77-35-23-11-2-2v-205l2-2 16-5 16-8 15-9 10-8 10-9 7-7 9-11 10-14 10-18 7-16 8-24 4-19 3-22v-34l-3-24-6-25-9-24-12-23-11-16-9-11-17-17-15-11-16-9-16-7-12-4-1-2v-239z" fill="#F7D4AC"/>
<path transform="translate(1023,526)" d="m0 0 4 2 101 101 9 6 10 4h9l15-5 30-13 42-18 87-37h3l-1 8-7 25-9 25-12 26-10 19-12 19-10 14-10 13-9 10-7 8-23 23-11 9-16 12-17 11-22 12-21 10-25 9-23 6-21 4-17 2-18 1-34-1-23-3-28-6-27-9-21-9-25-13-19-12-17-13-13-11-12-11-16-16-9-11-8-9-13-19-10-15-12-22-11-23-9-24-8-26-3-13 6 1 38 16 58 25 26 11 30 13 15 6 4 1h10l11-4 13-11 94-94z" fill="#00AABF"/>
<path transform="translate(718,384)" d="m0 0 613 1 3 9 6 35 3 25 1 34-4 4-25 11-140 60-13 6-4-1-5-5-6-5v-2h-2v-2h-2l-85-85-7-8-10-8-13-5h-10l-9 4-9 7-77 77h-2l-2 4-6 5-23 23-8-1-30-13-33-14-35-15-30-13-26-11-23-10-1-2v-14l2-32 4-28 5-24z" fill="#273339"/>
<path transform="translate(1010,128)" d="m0 0h27l33 4 27 6 21 6 28 11 19 9 21 12 19 13 16 13 14 12 18 18 9 11 12 15 10 15 9 15 14 27 1 4-77 1h-488l-3-1 1-4 8-17 11-19 15-22 11-14 10-11 7-8 11-11 8-7 13-11 18-13 21-13 15-8 25-11 20-7 24-7 27-5z" fill="#00AABF"/>
<path transform="translate(311,1088)" d="m0 0h17l14 3 12 5 13 8 14 12 10 13 9 16 6 14 6 20 3 16 1 12v17l-2 20-5 21-6 16-8 16-9 12-11 12-8 7-13 8-16 6-11 2h-14l-14-3-13-5-14-9-12-11-8-9-9-14-7-14-7-21-4-21-1-11v-20l2-17 4-19 7-19 8-16 12-16 13-13 14-9 10-5z" fill="#00AABF"/>
<path transform="translate(1719,1088)" d="m0 0h17l14 3 12 5 10 6 9 7 7 6 11 14 9 16 6 14 5 15 4 21 1 12v17l-2 20-5 21-6 16-7 14-10 14-11 12-11 9-10 6-16 6-11 2h-14l-14-3-13-5-14-9-12-11-8-9-9-14-7-14-7-21-4-21-1-11v-20l2-17 4-19 7-19 8-16 12-16 13-13 14-9 11-5z" fill="#00AABF"/>
<path transform="translate(896,872)" d="m0 0 10 3 25 8 25 6 24 4 21 2h44l21-2 30-5 25-6 27-9h4v89l-4 3-36 16-30 14-29 13-26 12-7-1-35-16-36-16-32-15-20-9-1-2z" fill="#0095A4"/>
<path transform="translate(1424,1411)" d="m0 0 3 3 26 52-1 4-23 11-222 111-7 4-4-1-27-54 2-4 46-23 19-9 19-10 48-24 25-12z" fill="#010101"/>
<path transform="translate(1422,1028)" d="m0 0h4l27 54-1 4-23 11-17 9-23 11-17 9-23 11-88 44-17 9-21 10-19 10-4 2-4-1-12-25-10-19-5-10 1-3z" fill="#010101"/>
<path transform="translate(1422,1220)" d="m0 0h4l27 54-1 4-23 11-226 113-3 2-4-1-12-25-10-19-5-10 2-4 21-10 16-8z" fill="#010001"/>
<path transform="translate(621,1411)" d="m0 0 5 2 250 125 1 4-18 36-9 17-4 1-19-10-234-117 2-6 20-40z" fill="#010001"/>
<path transform="translate(621,1219)" d="m0 0 5 2 250 125 1 4-20 40-7 13-4 1-19-10-230-115-3-1-1-3 24-48z" fill="#010001"/>
<path transform="translate(622,1027)" d="m0 0 254 127 1 4-26 52-2 2-4-1-248-124-3-1 1-7 18-36 8-15z" fill="#010001"/>
<path transform="translate(1398,384)" d="m0 0h45l11 3 8 6 5 6 4 10 1 34v98l-1 17-4 17-6 14-8 12-9 10-8 8-14 9-16 7-16 4h-11l3-10 10-32 7-29 5-31 3-31v-49l-3-31-4-28-3-13z" fill="#0095A4"/>
<path transform="translate(604,384)" d="m0 0h46l1 2-4 18-4 27-2 23v55l4 39 5 25 6 25 8 26 4 11v4h-9l-17-4-16-7-11-7-12-10-9-11-7-11-6-14-3-11-1-7-1-23v-117l1-10 5-10 7-7 10-5z" fill="#0095A4"/>
<path transform="translate(1055,1098)" d="m0 0h1l1 125-1 650h-1l-1-274v-424z" fill="#273339"/>
<path transform="translate(411,1179)" d="m0 0h1l3 16 1 12v17l-2 20-1 5h-1v-13l1-7v-27l-2-15z" fill="#0095A4"/>
<path transform="translate(1819,1179)" d="m0 0h1l3 16 1 12v17l-2 20-1 5h-1v-12l2-21-1-15-2-13z" fill="#0095A4"/>
<path transform="translate(1218,756)" d="m0 0 3 1-10 9-4 3-2-1 1-2h2v-2h3l2-4z" fill="#0095A4"/>
</svg>
